# xmcd
# 
# Track frame offsets:
#     150
#     11085
#     23069
#     35357
#     48000
#     70335
#     79730
#     101332
#     132722
#     153609
#     166496
#     183136
#     198179
#     218131
#     236231
#     257436
# 
# Disc length: 3736
# 
# Revision: 3
# Processed by: cddbd v1.5.2PL0 Copyright (c) Steve Scherf et al.
# Submitted via: fre:ac v1.0.31
# 
DISCID=d10e9610
DTITLE=Various Artist - Ultimate Grammy Collection - Classic R&B
DYEAR=2008
DGENRE=R&B
TTITLE0=Aretha Franklin - Respect
TTITLE1=Sam and Dave - Soul Man
TTITLE2=Otis Redding - (Sittin´ On) The Dock Of The Bay
TTITLE3=Isley Brothers - It's Your Thing
TTITLE4=Ike and Tina Turner - Proud Mary
TTITLE5=Bill Withers - Ain't No Sunshine
TTITLE6=Billy Paul - Me And Mrs. Jones
TTITLE7=Temptations - Papa Was A Rollin' Stone
TTITLE8=Gladys Knight and The Pips - Midnight Train To Georgia
TTITLE9=Natalie Cole - This Will Be (An Everlasting Love)
TTITLE10=The Emotions - Best Of My Love
TTITLE11=Donna Summer - Last Dance
TTITLE12=Earth, Wind and Fire - After The Love Has Gone
TTITLE13=Marvin Gaye - Sexual Healing
TTITLE14=Rufus and Chaka Khan - Ain't Nobody
TTITLE15=Commodores - Nightshift
EXTD=
EXTT0=
EXTT1=
EXTT2=
EXTT3=
EXTT4=
EXTT5=
EXTT6=
EXTT7=
EXTT8=
EXTT9=
EXTT10=
EXTT11=
EXTT12=
EXTT13=
EXTT14=
EXTT15=
PLAYORDER=
